<svg xmlns="http://www.w3.org/2000/svg" width="512" height="512" viewBox="0 0 512 512">
  <defs>
    <linearGradient id="bg" x1="0" y1="0" x2="1" y2="1">
      <stop offset="0" stop-color="#1b1f2a"/>
      <stop offset="1" stop-color="#0d1117"/>
    </linearGradient>
    <linearGradient id="accent" x1="0" y1="0" x2="1" y2="1">
      <stop offset="0" stop-color="#7c6cff"/>
      <stop offset="1" stop-color="#4f9cf9"/>
    </linearGradient>
  </defs>

  <rect x="16" y="16" width="480" height="480" rx="108" fill="url(#bg)"/>
  <rect x="16" y="16" width="480" height="480" rx="108" fill="none" stroke="#ffffff" stroke-opacity="0.08" stroke-width="4"/>

  <!-- git branch line -->
  <path d="M176 128 L176 384 M176 224 C176 288 304 224 304 288 L304 336"
        fill="none" stroke="url(#accent)" stroke-width="20" stroke-linecap="round"/>

  <!-- commit nodes -->
  <circle cx="176" cy="128" r="34" fill="#0d1117" stroke="url(#accent)" stroke-width="16"/>
  <circle cx="176" cy="384" r="34" fill="#0d1117" stroke="url(#accent)" stroke-width="16"/>
  <circle cx="304" cy="384" r="34" fill="url(#accent)"/>

  <!-- AI sparkle -->
  <path d="M368 96
           C376 150 402 176 456 184
           C402 192 376 218 368 272
           C360 218 334 192 280 184
           C334 176 360 150 368 96 Z"
        fill="#ffffff"/>
  <path d="M420 236
           C424 262 438 276 464 280
           C438 284 424 298 420 324
           C416 298 402 284 376 280
           C402 276 416 262 420 236 Z"
        fill="#ffffff" fill-opacity="0.75"/>
</svg>
